<svg width="60" height="60" viewBox="0 0 60 60" fill="none" xmlns="http://www.w3.org/2000/svg">
<rect width="60" height="60" rx="14" fill="#7CEF94"/>
<path fill-rule="evenodd" clip-rule="evenodd" d="M30.3175 28.1082H29.3829V42.5011H30.3175V28.1082ZM34.5419 12.9771C34.2732 12.9851 34.1925 13.0509 34.1925 13.0509C34.0084 13.1528 33.882 13.3463 33.882 13.571C33.882 13.7991 34.0121 13.9955 34.2007 14.0959C34.0121 14.1964 33.882 14.3927 33.882 14.6208C33.882 14.846 34.0088 15.04 34.1934 15.1418C34.1934 15.1418 34.2706 15.2041 34.5233 15.2147H35.2883H37.8468C38.1942 15.2147 38.4438 15.6344 38.1159 15.9946C38.0449 16.0727 37.9395 16.1107 37.834 16.1107H35.2883H34.5808C34.2508 16.1107 33.8829 16.1044 33.5175 16.0982H33.5175H33.5175C32.7145 16.0845 31.9233 16.071 31.5714 16.1247C31.1422 16.1904 30.7123 16.347 30.3767 16.6285C29.3558 17.4853 29.3585 18.6787 29.3618 20.0649C29.3621 20.2263 29.3625 20.3904 29.3613 20.5568L29.3829 22.9679L28.4016 25.0241H29.1024L30.4578 23.108C33.6353 23.108 35.4578 25.3979 35.4578 28.5289V44.6975C35.4578 46.9406 34.1026 47.8752 32.467 47.8752H31.8128C30.8314 47.8284 29.8501 47.4078 29.3361 46.3331L28.9623 45.5853H28.6819V47.7349H24.2426V47.5616V42.7837V33.8916V24.1685C24.2426 24.1685 24.2154 19.1308 24.3818 17.9376C24.3844 17.9069 24.3869 17.8763 24.3898 17.8455C24.4627 17.0582 24.6623 16.2834 24.9746 15.5571C25.0278 15.4336 25.0843 15.3115 25.144 15.191C26.1635 13.1323 27.9747 11.6092 30.2372 11.1581C30.8726 11.0314 31.5064 11.0013 32.1525 11.0011C32.7508 11.001 32.8889 11.0009 33.0459 11.0008L33.9024 11.0005L36.0475 11C36.4018 11 36.6581 11.42 36.3459 11.7894C36.2677 11.8819 36.1494 11.9315 36.0283 11.9315H35.2883C35.2883 11.9321 34.5354 11.9321 34.5354 11.9321C34.5017 11.9313 34.4661 11.9331 34.4477 11.966C33.9913 12.7829 33.1747 13.3978 32.2633 13.6104C32.2286 13.6185 32.2051 13.6496 32.2051 13.6839C32.2051 13.6895 32.2057 13.6952 32.207 13.7011C32.2165 13.7416 32.2571 13.7669 32.2977 13.7574C33.2341 13.539 34.0737 12.9137 34.5547 12.0812H35.2883H38.1654C38.272 12.0812 38.405 12.156 38.4552 12.2499C38.6488 12.6126 38.3909 12.9771 38.0481 12.9771H35.2883H34.5419ZM18.1032 37.4247H17.1643V42.4948H18.1032V37.4247ZM12 44.7012V37.8471C12 35.0305 13.8311 33.1994 16.6477 33.1994H18.1032V28.0356H17.164V32.3546H12V28.5521C12 25.1719 14.1596 23.0125 17.7274 23.0125C21.1075 23.0125 23.267 25.1719 23.267 28.5521V47.7527H19.1827L18.8071 45.5931H18.5254L18.1499 46.3443C17.6335 47.424 16.6477 47.8467 15.6617 47.8935H15.0045C13.3616 47.8935 12 46.9546 12 44.7012ZM42.2795 37.4247H41.3405V42.4948H42.2795V37.4247ZM36.1765 44.7012V37.8471C36.1765 35.0305 38.0074 33.1994 40.824 33.1994H42.2795V28.0356H41.3403V32.3546H36.1765V28.5521C36.1765 25.1719 38.3359 23.0125 41.9037 23.0125C45.2839 23.0125 47.4433 25.1719 47.4433 28.5521V47.7527H43.3591L42.9834 45.5931H42.7018L42.3263 46.3443C41.8098 47.424 40.824 47.8467 39.8381 47.8935H39.1809C37.5379 47.8935 36.1765 46.9546 36.1765 44.7012ZM35.2884 14.1728H34.4253C34.3041 14.1728 34.1879 14.2318 34.1219 14.3336C33.8923 14.6876 34.1329 15.0558 34.464 15.0671C34.4665 15.067 34.4689 15.0667 34.4712 15.0663C34.4738 15.066 34.4764 15.0656 34.4792 15.0656H35.2884H36.0819C36.1683 15.06 36.2489 15.0334 36.3164 14.9877C36.3416 14.9708 36.3651 14.9513 36.3864 14.9299C36.5265 14.7898 36.5793 14.5623 36.4558 14.3363C36.3998 14.2336 36.2883 14.1728 36.1713 14.1728H35.2884ZM35.2884 13.1262H36.1333C36.3521 13.142 36.5252 13.3226 36.5252 13.5454C36.5252 13.6761 36.4722 13.7945 36.3865 13.8803C36.3007 13.966 36.1824 14.019 36.0516 14.019H35.2884H34.4792C34.4482 14.019 34.418 14.0158 34.3889 14.0099C34.3306 13.998 34.2764 13.9746 34.2287 13.9424C34.205 13.9264 34.1827 13.908 34.1624 13.8878C34.122 13.8472 34.0891 13.799 34.0664 13.7454C34.0438 13.6918 34.0312 13.633 34.0312 13.5711C34.0312 13.3289 34.2239 13.1328 34.4641 13.1247C34.4665 13.1247 34.4688 13.1251 34.4711 13.1254C34.4738 13.1258 34.4764 13.1262 34.4792 13.1262H35.2884Z" fill="white"/>
</svg>
