<svg width="60" height="60" viewBox="0 0 60 60" fill="none" xmlns="http://www.w3.org/2000/svg">
<rect width="60" height="60" rx="14" fill="#7CEF94"/>
<path fill-rule="evenodd" clip-rule="evenodd" d="M16.4557 26.5375V15H11V44.8899H16.4508L16.4557 34.3571C16.4508 32.5903 16.6159 31.2555 16.9508 30.3478C17.276 29.445 17.7954 28.7703 18.5137 28.3189C19.2224 27.8723 20.0329 27.6442 20.9358 27.6442C21.7221 27.6442 22.3774 27.8189 22.9064 28.1733C23.4307 28.5228 23.7947 28.9888 23.9986 29.5858C24.2121 30.1779 24.3092 31.5758 24.3092 33.7795V44.8899H29.7649V32.5563C29.7649 30.6681 29.6678 29.2751 29.4834 28.382C29.2989 27.484 28.9494 26.6686 28.4349 25.9211C27.9253 25.1882 27.1681 24.5766 26.1536 24.1058C25.144 23.6252 24.0179 23.3874 22.7559 23.3874C20.3145 23.3874 18.2128 24.4407 16.4557 26.5375ZM37.9455 26.5382V15.0014H32.4912V44.8904H37.9455V34.3557C37.9455 32.5908 38.1101 31.2547 38.4341 30.3473C38.7682 29.4499 39.2916 28.7718 39.9996 28.3231C40.7076 27.8694 41.5202 27.645 42.4227 27.645C43.2104 27.645 43.8735 27.8195 44.392 28.1735C44.9155 28.5225 45.2794 28.9911 45.4888 29.5844C45.6982 30.1777 45.7979 31.5787 45.7979 33.7824V44.8904H51.2522V32.5559C51.2522 30.6663 51.1575 29.2803 50.9731 28.3829C50.7836 27.4855 50.4346 26.6678 49.9211 25.925C49.4125 25.1871 48.6547 24.5789 47.6426 24.1052C46.6355 23.6266 45.4988 23.3873 44.2474 23.3873C41.8044 23.3873 39.7004 24.4392 37.9455 26.5382Z" fill="white"/>
</svg>
