{
	"materials":[{
		"emissiveFactor":[0.0,
		0.0,
		0.0],
		"pbrMetallicRoughness":{
			"baseColorFactor":[0.8,
			0.8,
			0.8,
			1.0],
			"metallicFactor":0.0,
			"roughnessFactor":0.5
		},
		"alphaMode":"OPAQUE",
		"doubleSided":false,
		"name":"Mat"
	}],
	"nodes":[{
		"name":"lamp",
		"mesh":0
	}],
	"asset":{
		"version":"2.0",
		"generator":"Created using the official Cinema 4D glTF Exporter 1.000x284978"
	},
	"scenes":[{
		"nodes":[0]
	}],
	"meshes":[{
		"name":"lamp",
		"primitives":[{
			"attributes":{
				"POSITION":1,
				"NORMAL":2,
				"TEXCOORD_0":3
			},
			"indices":0,
			"material":0
		}]
	}],
	"accessors":[{
		"bufferView":0,
		"type":"SCALAR",
		"componentType":5123,
		"count":76272,
		"byteOffset":0,
		"min":[0],
		"max":[12711]
	},
	{
		"bufferView":1,
		"type":"VEC3",
		"componentType":5126,
		"count":12712,
		"byteOffset":0,
		"min":[-45.799137115478519,
		-55.176700592041019,
		-8.70219898223877],
		"max":[41.88488006591797,
		57.665096282958987,
		12.297806739807129]
	},
	{
		"bufferView":1,
		"type":"VEC3",
		"componentType":5126,
		"count":12712,
		"byteOffset":12,
		"min":[-1.0,
		-1.0,
		-1.0],
		"max":[0.9999958276748657,
		1.0,
		1.0]
	},
	{
		"bufferView":1,
		"type":"VEC2",
		"componentType":5126,
		"count":12712,
		"byteOffset":24,
		"min":[0.0011675907298922539,
		0.003440047148615122],
		"max":[0.9971377849578857,
		0.9953697919845581]
	}],
	"bufferViews":[{
		"buffer":0,
		"byteOffset":0,
		"byteLength":152544,
		"target":34963
	},
	{
		"buffer":0,
		"byteOffset":152544,
		"byteLength":406784,
		"target":34962,
		"byteStride":32
	}],
	"buffers":[{
		"uri":"data:application/octet-stream;base64,",
		"byteLength":559328
	}]
}