{
    "asset" : {
        "generator" : "Khronos glTF Blender I/O v1.6.16",
        "version" : "2.0"
    },
    "scene" : 0,
    "scenes" : [
        {
            "name" : "Scene",
            "nodes" : [
                0
            ]
        }
    ],
    "nodes" : [
        {
            "mesh" : 0,
            "name" : "Vector-4"
        }
    ],
    "materials" : [
        {
            "doubleSided" : true,
            "name" : "SVGMat",
            "pbrMetallicRoughness" : {
                "baseColorFactor" : [
                    0,
                    0,
                    0,
                    1
                ],
                "metallicFactor" : 0,
                "roughnessFactor" : 0.4000000059604645
            }
        }
    ],
    "meshes" : [
        {
            "name" : "Curve.004",
            "primitives" : [
                {
                    "attributes" : {
                        "POSITION" : 0,
                        "NORMAL" : 1,
                        "TEXCOORD_0" : 2
                    },
                    "indices" : 3,
                    "material" : 0
                }
            ]
        }
    ],
    "accessors" : [
        {
            "bufferView" : 0,
            "componentType" : 5126,
            "count" : 5488,
            "max" : [
                0.25278905034065247,
                0.24187062680721283,
                0.037500008940696716
            ],
            "min" : [
                -0.2537694573402405,
                -0.24608348309993744,
                -0.037500008940696716
            ],
            "type" : "VEC3"
        },
        {
            "bufferView" : 1,
            "componentType" : 5126,
            "count" : 5488,
            "type" : "VEC3"
        },
        {
            "bufferView" : 2,
            "componentType" : 5126,
            "count" : 5488,
            "type" : "VEC2"
        },
        {
            "bufferView" : 3,
            "componentType" : 5123,
            "count" : 22884,
            "type" : "SCALAR"
        }
    ],
    "bufferViews" : [
        {
            "buffer" : 0,
            "byteLength" : 65856,
            "byteOffset" : 0
        },
        {
            "buffer" : 0,
            "byteLength" : 65856,
            "byteOffset" : 65856
        },
        {
            "buffer" : 0,
            "byteLength" : 43904,
            "byteOffset" : 131712
        },
        {
            "buffer" : 0,
            "byteLength" : 45768,
            "byteOffset" : 175616
        }
    ],
    "buffers" : [
        {
            "byteLength" : 221384,
            "uri" : "data:application/octet-stream;base64,"
        }
    ]
}
