{
    "asset" : {
        "generator" : "Khronos glTF Blender I/O v1.7.33",
        "version" : "2.0"
    },
    "scene" : 0,
    "scenes" : [
        {
            "name" : "Scene",
            "nodes" : [
                0
            ]
        }
    ],
    "nodes" : [
        {
            "mesh" : 0,
            "name" : "Vector",
            "rotation" : [
                0.7071068286895752,
                0,
                0,
                0.7071068286895752
            ],
            "scale" : [
                10,
                10,
                10
            ]
        }
    ],
    "materials" : [
        {
            "doubleSided" : true,
            "name" : "SVGMat",
            "pbrMetallicRoughness" : {
                "baseColorFactor" : [
                    0.0006070539820939302,
                    0.0006070539820939302,
                    0.0006070539820939302,
                    1
                ],
                "metallicFactor" : 0,
                "roughnessFactor" : 0.4000000059604645
            }
        }
    ],
    "meshes" : [
        {
            "name" : "Curve.003",
            "primitives" : [
                {
                    "attributes" : {
                        "POSITION" : 0,
                        "NORMAL" : 1,
                        "TEXCOORD_0" : 2
                    },
                    "indices" : 3,
                    "material" : 0
                }
            ]
        }
    ],
    "accessors" : [
        {
            "bufferView" : 0,
            "componentType" : 5126,
            "count" : 5610,
            "max" : [
                0.04870522767305374,
                0.0044999998062849045,
                0.026773493736982346
            ],
            "min" : [
                -0.04870523139834404,
                -0.0044999998062849045,
                -0.026773493736982346
            ],
            "type" : "VEC3"
        },
        {
            "bufferView" : 1,
            "componentType" : 5126,
            "count" : 5610,
            "type" : "VEC3"
        },
        {
            "bufferView" : 2,
            "componentType" : 5126,
            "count" : 5610,
            "type" : "VEC2"
        },
        {
            "bufferView" : 3,
            "componentType" : 5123,
            "count" : 24480,
            "type" : "SCALAR"
        }
    ],
    "bufferViews" : [
        {
            "buffer" : 0,
            "byteLength" : 67320,
            "byteOffset" : 0
        },
        {
            "buffer" : 0,
            "byteLength" : 67320,
            "byteOffset" : 67320
        },
        {
            "buffer" : 0,
            "byteLength" : 44880,
            "byteOffset" : 134640
        },
        {
            "buffer" : 0,
            "byteLength" : 48960,
            "byteOffset" : 179520
        }
    ],
    "buffers" : [
        {
            "byteLength" : 228480,
            "uri" : "data:application/octet-stream;base64,"
        }
    ]
}
