{
    "asset" : {
        "generator" : "Khronos glTF Blender I/O v1.6.16",
        "version" : "2.0"
    },
    "scene" : 0,
    "scenes" : [
        {
            "name" : "Scene",
            "nodes" : [
                0
            ]
        }
    ],
    "nodes" : [
        {
            "mesh" : 0,
            "name" : "Vector-2"
        }
    ],
    "materials" : [
        {
            "doubleSided" : true,
            "name" : "SVGMat",
            "pbrMetallicRoughness" : {
                "baseColorFactor" : [
                    0,
                    0,
                    0,
                    1
                ],
                "metallicFactor" : 0,
                "roughnessFactor" : 0.4000000059604645
            }
        }
    ],
    "meshes" : [
        {
            "name" : "Curve.002",
            "primitives" : [
                {
                    "attributes" : {
                        "POSITION" : 0,
                        "NORMAL" : 1,
                        "TEXCOORD_0" : 2
                    },
                    "indices" : 3,
                    "material" : 0
                }
            ]
        }
    ],
    "accessors" : [
        {
            "bufferView" : 0,
            "componentType" : 5126,
            "count" : 4708,
            "max" : [
                0.2610291838645935,
                0.26075321435928345,
                0.04125222936272621
            ],
            "min" : [
                -0.2582041621208191,
                -0.261489599943161,
                -0.04125223308801651
            ],
            "type" : "VEC3"
        },
        {
            "bufferView" : 1,
            "componentType" : 5126,
            "count" : 4708,
            "type" : "VEC3"
        },
        {
            "bufferView" : 2,
            "componentType" : 5126,
            "count" : 4708,
            "type" : "VEC2"
        },
        {
            "bufferView" : 3,
            "componentType" : 5123,
            "count" : 17028,
            "type" : "SCALAR"
        }
    ],
    "bufferViews" : [
        {
            "buffer" : 0,
            "byteLength" : 56496,
            "byteOffset" : 0
        },
        {
            "buffer" : 0,
            "byteLength" : 56496,
            "byteOffset" : 56496
        },
        {
            "buffer" : 0,
            "byteLength" : 37664,
            "byteOffset" : 112992
        },
        {
            "buffer" : 0,
            "byteLength" : 34056,
            "byteOffset" : 150656
        }
    ],
    "buffers" : [
        {
            "byteLength" : 184712,
            "uri" : "data:application/octet-stream;base64,"
        }
    ]
}
