{
    "asset" : {
        "generator" : "Khronos glTF Blender I/O v1.6.16",
        "version" : "2.0"
    },
    "scene" : 0,
    "scenes" : [
        {
            "name" : "Scene",
            "nodes" : [
                0
            ]
        }
    ],
    "nodes" : [
        {
            "mesh" : 0,
            "name" : "Vector-1"
        }
    ],
    "materials" : [
        {
            "doubleSided" : true,
            "name" : "SVGMat",
            "pbrMetallicRoughness" : {
                "baseColorFactor" : [
                    0,
                    0,
                    0,
                    1
                ],
                "metallicFactor" : 0,
                "roughnessFactor" : 0.4000000059604645
            }
        }
    ],
    "meshes" : [
        {
            "name" : "Curve.001",
            "primitives" : [
                {
                    "attributes" : {
                        "POSITION" : 0,
                        "NORMAL" : 1,
                        "TEXCOORD_0" : 2
                    },
                    "indices" : 3,
                    "material" : 0
                }
            ]
        }
    ],
    "accessors" : [
        {
            "bufferView" : 0,
            "componentType" : 5126,
            "count" : 1894,
            "max" : [
                0.47504857182502747,
                0.26072341203689575,
                0.037500008940696716
            ],
            "min" : [
                -0.4750605821609497,
                -0.26072341203689575,
                -0.037500008940696716
            ],
            "type" : "VEC3"
        },
        {
            "bufferView" : 1,
            "componentType" : 5126,
            "count" : 1894,
            "type" : "VEC3"
        },
        {
            "bufferView" : 2,
            "componentType" : 5126,
            "count" : 1894,
            "type" : "VEC2"
        },
        {
            "bufferView" : 3,
            "componentType" : 5123,
            "count" : 7356,
            "type" : "SCALAR"
        }
    ],
    "bufferViews" : [
        {
            "buffer" : 0,
            "byteLength" : 22728,
            "byteOffset" : 0
        },
        {
            "buffer" : 0,
            "byteLength" : 22728,
            "byteOffset" : 22728
        },
        {
            "buffer" : 0,
            "byteLength" : 15152,
            "byteOffset" : 45456
        },
        {
            "buffer" : 0,
            "byteLength" : 14712,
            "byteOffset" : 60608
        }
    ],
    "buffers" : [
        {
            "byteLength" : 75320,
            "uri" : "data:application/octet-stream;base64,"
        }
    ]
}
