{
    "asset" : {
        "generator" : "Khronos glTF Blender I/O v1.6.16",
        "version" : "2.0"
    },
    "scene" : 0,
    "scenes" : [
        {
            "name" : "Scene",
            "nodes" : [
                0
            ]
        }
    ],
    "nodes" : [
        {
            "mesh" : 0,
            "name" : "Vector-5"
        }
    ],
    "materials" : [
        {
            "doubleSided" : true,
            "name" : "SVGMat",
            "pbrMetallicRoughness" : {
                "baseColorFactor" : [
                    0,
                    0,
                    0,
                    1
                ],
                "metallicFactor" : 0,
                "roughnessFactor" : 0.4000000059604645
            }
        }
    ],
    "meshes" : [
        {
            "name" : "Curve.005",
            "primitives" : [
                {
                    "attributes" : {
                        "POSITION" : 0,
                        "NORMAL" : 1,
                        "TEXCOORD_0" : 2
                    },
                    "indices" : 3,
                    "material" : 0
                }
            ]
        }
    ],
    "accessors" : [
        {
            "bufferView" : 0,
            "componentType" : 5126,
            "count" : 8465,
            "max" : [
                0.26224589347839355,
                0.26219385862350464,
                0.04125000908970833
            ],
            "min" : [
                -0.26224589347839355,
                -0.26219385862350464,
                -0.04125000908970833
            ],
            "type" : "VEC3"
        },
        {
            "bufferView" : 1,
            "componentType" : 5126,
            "count" : 8465,
            "type" : "VEC3"
        },
        {
            "bufferView" : 2,
            "componentType" : 5126,
            "count" : 8465,
            "type" : "VEC2"
        },
        {
            "bufferView" : 3,
            "componentType" : 5123,
            "count" : 27852,
            "type" : "SCALAR"
        }
    ],
    "bufferViews" : [
        {
            "buffer" : 0,
            "byteLength" : 101580,
            "byteOffset" : 0
        },
        {
            "buffer" : 0,
            "byteLength" : 101580,
            "byteOffset" : 101580
        },
        {
            "buffer" : 0,
            "byteLength" : 67720,
            "byteOffset" : 203160
        },
        {
            "buffer" : 0,
            "byteLength" : 55704,
            "byteOffset" : 270880
        }
    ],
    "buffers" : [
        {
            "byteLength" : 326584,
            "uri" : "data:application/octet-stream;base64,"
        }
    ]
}
