{
    "asset" : {
        "generator" : "Khronos glTF Blender I/O v1.6.16",
        "version" : "2.0"
    },
    "scene" : 0,
    "scenes" : [
        {
            "name" : "Scene",
            "nodes" : [
                0
            ]
        }
    ],
    "nodes" : [
        {
            "mesh" : 0,
            "name" : "Vector-3"
        }
    ],
    "materials" : [
        {
            "doubleSided" : true,
            "name" : "SVGMat",
            "pbrMetallicRoughness" : {
                "baseColorFactor" : [
                    0,
                    0,
                    0,
                    1
                ],
                "metallicFactor" : 0,
                "roughnessFactor" : 0.4000000059604645
            }
        }
    ],
    "meshes" : [
        {
            "name" : "Curve.003",
            "primitives" : [
                {
                    "attributes" : {
                        "POSITION" : 0,
                        "NORMAL" : 1,
                        "TEXCOORD_0" : 2
                    },
                    "indices" : 3,
                    "material" : 0
                }
            ]
        }
    ],
    "accessors" : [
        {
            "bufferView" : 0,
            "componentType" : 5126,
            "count" : 5791,
            "max" : [
                0.253351628780365,
                0.24864470958709717,
                0.03750002011656761
            ],
            "min" : [
                -0.2533509433269501,
                -0.248646080493927,
                -0.03750002011656761
            ],
            "type" : "VEC3"
        },
        {
            "bufferView" : 1,
            "componentType" : 5126,
            "count" : 5791,
            "type" : "VEC3"
        },
        {
            "bufferView" : 2,
            "componentType" : 5126,
            "count" : 5791,
            "type" : "VEC2"
        },
        {
            "bufferView" : 3,
            "componentType" : 5123,
            "count" : 22206,
            "type" : "SCALAR"
        }
    ],
    "bufferViews" : [
        {
            "buffer" : 0,
            "byteLength" : 69492,
            "byteOffset" : 0
        },
        {
            "buffer" : 0,
            "byteLength" : 69492,
            "byteOffset" : 69492
        },
        {
            "buffer" : 0,
            "byteLength" : 46328,
            "byteOffset" : 138984
        },
        {
            "buffer" : 0,
            "byteLength" : 44412,
            "byteOffset" : 185312
        }
    ],
    "buffers" : [
        {
            "byteLength" : 229724,
            "uri" : "data:application/octet-stream;base64,"
        }
    ]
}
