{
    "asset" : {
        "generator" : "Khronos glTF Blender I/O v1.7.33",
        "version" : "2.0"
    },
    "scene" : 0,
    "scenes" : [
        {
            "name" : "Scene",
            "nodes" : [
                0
            ]
        }
    ],
    "nodes" : [
        {
            "mesh" : 0,
            "name" : "Vector-1"
        }
    ],
    "materials" : [
        {
            "doubleSided" : true,
            "name" : "SVGMat",
            "pbrMetallicRoughness" : {
                "baseColorFactor" : [
                    0.0006070539820939302,
                    0.0006070539820939302,
                    0.0006070539820939302,
                    1
                ],
                "metallicFactor" : 0,
                "roughnessFactor" : 0.4000000059604645
            }
        }
    ],
    "meshes" : [
        {
            "name" : "Curve.004",
            "primitives" : [
                {
                    "attributes" : {
                        "POSITION" : 0,
                        "NORMAL" : 1,
                        "TEXCOORD_0" : 2
                    },
                    "indices" : 3,
                    "material" : 0
                }
            ]
        }
    ],
    "accessors" : [
        {
            "bufferView" : 0,
            "componentType" : 5126,
            "count" : 12920,
            "max" : [
                0.2598661780357361,
                0.25881320238113403,
                0.040000010281801224
            ],
            "min" : [
                -0.25990578532218933,
                -0.258811891078949,
                -0.040000010281801224
            ],
            "type" : "VEC3"
        },
        {
            "bufferView" : 1,
            "componentType" : 5126,
            "count" : 12920,
            "type" : "VEC3"
        },
        {
            "bufferView" : 2,
            "componentType" : 5126,
            "count" : 12920,
            "type" : "VEC2"
        },
        {
            "bufferView" : 3,
            "componentType" : 5123,
            "count" : 58092,
            "type" : "SCALAR"
        }
    ],
    "bufferViews" : [
        {
            "buffer" : 0,
            "byteLength" : 155040,
            "byteOffset" : 0
        },
        {
            "buffer" : 0,
            "byteLength" : 155040,
            "byteOffset" : 155040
        },
        {
            "buffer" : 0,
            "byteLength" : 103360,
            "byteOffset" : 310080
        },
        {
            "buffer" : 0,
            "byteLength" : 116184,
            "byteOffset" : 413440
        }
    ],
    "buffers" : [
        {
            "byteLength" : 529624,
            "uri" : "data:application/octet-stream;base64,"
        }
    ]
}
