{
    "asset" : {
        "generator" : "Khronos glTF Blender I/O v1.7.33",
        "version" : "2.0"
    },
    "scene" : 0,
    "scenes" : [
        {
            "name" : "Scene",
            "nodes" : [
                0
            ]
        }
    ],
    "nodes" : [
        {
            "mesh" : 0,
            "name" : "Vector-3"
        }
    ],
    "materials" : [
        {
            "doubleSided" : true,
            "name" : "SVGMat",
            "pbrMetallicRoughness" : {
                "baseColorFactor" : [
                    0.0006070539820939302,
                    0.0006070539820939302,
                    0.0006070539820939302,
                    1
                ],
                "metallicFactor" : 0,
                "roughnessFactor" : 0.4000000059604645
            }
        }
    ],
    "meshes" : [
        {
            "name" : "Curve.007",
            "primitives" : [
                {
                    "attributes" : {
                        "POSITION" : 0,
                        "NORMAL" : 1,
                        "TEXCOORD_0" : 2
                    },
                    "indices" : 3,
                    "material" : 0
                }
            ]
        }
    ],
    "accessors" : [
        {
            "bufferView" : 0,
            "componentType" : 5126,
            "count" : 12439,
            "max" : [
                0.27708083391189575,
                0.2687471807003021,
                0.05000000819563866
            ],
            "min" : [
                -0.27740970253944397,
                -0.2686748802661896,
                -0.05000000819563866
            ],
            "type" : "VEC3"
        },
        {
            "bufferView" : 1,
            "componentType" : 5126,
            "count" : 12439,
            "type" : "VEC3"
        },
        {
            "bufferView" : 2,
            "componentType" : 5126,
            "count" : 12439,
            "type" : "VEC2"
        },
        {
            "bufferView" : 3,
            "componentType" : 5123,
            "count" : 53556,
            "type" : "SCALAR"
        }
    ],
    "bufferViews" : [
        {
            "buffer" : 0,
            "byteLength" : 149268,
            "byteOffset" : 0
        },
        {
            "buffer" : 0,
            "byteLength" : 149268,
            "byteOffset" : 149268
        },
        {
            "buffer" : 0,
            "byteLength" : 99512,
            "byteOffset" : 298536
        },
        {
            "buffer" : 0,
            "byteLength" : 107112,
            "byteOffset" : 398048
        }
    ],
    "buffers" : [
        {
            "byteLength" : 505160,
            "uri" : "data:application/octet-stream;base64,"
        }
    ]
}
