<svg width="60" height="60" fill="none" xmlns="http://www.w3.org/2000/svg"><rect width="60" height="60" rx="14" fill="#7CEF94"/><path fill-rule="evenodd" clip-rule="evenodd" d="M30.317 28.108h-.934v14.393h.934V28.108zm4.225-15.13c-.269.007-.35.073-.35.073a.595.595 0 00-.31.52c0 .228.13.425.319.525a.595.595 0 00-.319.525c0 .225.127.419.311.52 0 0 .078.063.33.074H37.847c.347 0 .597.42.269.78a.379.379 0 01-.282.116H34.581c-.33 0-.698-.007-1.064-.013-.803-.014-1.594-.027-1.946.027-.429.065-.859.222-1.194.503-1.021.857-1.018 2.05-1.015 3.437v.492l.02 2.41-.98 2.057h.7l1.356-1.916c3.177 0 5 2.29 5 5.42v16.17c0 2.243-1.355 3.177-2.991 3.177h-.654c-.982-.047-1.963-.467-2.477-1.542l-.374-.748h-.28v2.15h-4.44V24.168s-.027-5.037.14-6.23l.008-.092a7.574 7.574 0 01.754-2.655c1.02-2.059 2.83-3.582 5.093-4.033.636-.127 1.27-.157 1.916-.157h1.749L36.047 11c.355 0 .611.42.299.79a.415.415 0 01-.318.142h-.74-.753c-.033 0-.069.001-.087.034a3.436 3.436 0 01-2.185 1.644.076.076 0 00.035.147 3.59 3.59 0 002.257-1.676h3.61c.107 0 .24.075.29.169.194.363-.064.727-.407.727h-3.506zM18.103 37.424h-.939v5.07h.94v-5.07zM12 44.7v-6.854c0-2.816 1.831-4.648 4.648-4.648h1.455v-5.163h-.939v4.319H12v-3.803c0-3.38 2.16-5.54 5.727-5.54 3.38 0 5.54 2.16 5.54 5.54v19.2h-4.084l-.376-2.159h-.282l-.375.751c-.516 1.08-1.502 1.503-2.488 1.55h-.658c-1.642 0-3.004-.94-3.004-3.193zm30.28-7.276h-.94v5.07h.94v-5.07zM36.175 44.7v-6.854c0-2.816 1.831-4.648 4.648-4.648h1.456v-5.163h-.94v4.319h-5.164v-3.803c0-3.38 2.16-5.54 5.728-5.54 3.38 0 5.54 2.16 5.54 5.54v19.2h-4.085l-.376-2.159h-.281l-.376.751c-.516 1.08-1.502 1.503-2.488 1.55h-.657c-1.643 0-3.005-.94-3.005-3.193zm-.888-30.528h-.863a.361.361 0 00-.303.16c-.23.355.01.723.342.734h.007l.008-.001H36.082a.47.47 0 00.304-.136.487.487 0 00.07-.594.323.323 0 00-.285-.163h-.883zm0-1.047h.845a.42.42 0 01.392.42.472.472 0 01-.473.473h-1.573a.454.454 0 01-.317-.131.452.452 0 01-.13-.317c0-.242.192-.438.432-.446h.007l.008.001h.81z" fill="#fff"/></svg>