<svg width="60" height="60" fill="none" xmlns="http://www.w3.org/2000/svg"><rect width="60" height="60" rx="14" fill="#7CEF94"/><path fill-rule="evenodd" clip-rule="evenodd" d="M16.456 26.538V15H11v29.89h5.45l.006-10.533c-.005-1.767.16-3.101.495-4.01.325-.902.844-1.577 1.563-2.028.708-.447 1.519-.675 2.422-.675.786 0 1.441.175 1.97.53A2.7 2.7 0 0124 29.585c.213.592.31 1.99.31 4.194v11.11h5.456V32.556c0-1.888-.097-3.28-.282-4.174a6.646 6.646 0 00-1.048-2.46c-.51-.734-1.267-1.345-2.281-1.816-1.01-.48-2.136-.719-3.398-.719-2.442 0-4.543 1.054-6.3 3.15zm21.49 0V15.001H32.49v29.89h5.455V34.355c0-1.765.164-3.101.488-4.009.334-.897.858-1.575 1.566-2.024.708-.454 1.52-.678 2.423-.678.787 0 1.45.175 1.969.529a2.75 2.75 0 011.097 1.41c.21.594.309 1.995.309 4.198V44.89h5.454V32.556c0-1.89-.095-3.276-.279-4.173a6.71 6.71 0 00-1.052-2.458c-.508-.738-1.266-1.346-2.278-1.82-1.008-.478-2.144-.718-3.396-.718-2.443 0-4.547 1.052-6.301 3.151z" fill="#fff"/></svg>